<?xml version="1.0" standalone="no"?>
<!DOCTYPE svg PUBLIC "-//W3C//DTD SVG 20010904//EN"
 "http://www.w3.org/TR/2001/REC-SVG-20010904/DTD/svg10.dtd">
<svg version="1.0" xmlns="http://www.w3.org/2000/svg"
 width="203.000000pt" height="247.000000pt" viewBox="0 0 203.000000 247.000000"
 preserveAspectRatio="xMidYMid meet">

<g transform="translate(0.000000,247.000000) scale(0.100000,-0.100000)"
fill="#000000" stroke="none">
<path d="M855 2448 c-147 -37 -206 -60 -293 -115 -68 -43 -183 -152 -222 -209
-25 -37 -79 -144 -101 -201 -5 -13 -13 -33 -19 -45 -16 -39 -31 -209 -24 -282
16 -180 96 -349 223 -473 75 -73 252 -156 296 -140 25 10 17 34 -15 49 -16 7
-30 16 -30 20 0 5 -5 8 -11 8 -12 0 -81 31 -89 39 -3 4 -22 15 -43 25 -94 48
-208 188 -249 306 -37 105 -43 140 -43 240 0 103 5 131 48 255 54 159 201 322
366 406 206 104 475 107 678 7 172 -85 259 -239 232 -410 -25 -161 -112 -236
-294 -256 -49 -6 -93 -8 -97 -6 -4 3 -15 1 -24 -4 -13 -7 -9 -13 22 -29 44
-22 117 -108 154 -180 59 -118 130 -197 190 -213 53 -14 107 1 145 40 l29 30
-33 0 c-94 0 -152 46 -214 168 -18 35 -47 79 -64 98 -18 19 -33 38 -33 42 0 4
21 14 48 21 135 40 232 112 276 205 52 112 37 266 -36 360 -36 48 -117 112
-160 130 -16 6 -28 14 -28 18 0 4 -9 8 -20 8 -11 0 -20 5 -20 10 0 6 -9 10
-19 10 -11 0 -21 4 -23 8 -7 18 -154 54 -260 62 -135 11 -189 11 -243 -2z"/>
<path d="M775 2085 c-14 -13 -25 -31 -25 -39 0 -19 48 -76 64 -76 7 0 31 15
55 33 l42 32 -40 38 c-47 43 -63 46 -96 12z"/>
<path d="M845 1812 c-6 -5 -34 -17 -62 -28 -58 -20 -60 -25 -43 -99 10 -44 11
-119 10 -592 0 -245 -4 -333 -15 -368 -32 -109 -96 -155 -211 -155 -38 1 -87
7 -109 15 -21 8 -41 12 -43 10 -2 -2 18 -18 44 -35 47 -30 52 -31 139 -28 73
4 100 9 142 31 110 57 163 149 163 285 0 43 4 82 8 88 4 5 53 30 110 54 108
46 121 55 103 73 -8 8 -17 7 -33 -1 -20 -10 -107 -29 -162 -35 -18 -2 -19 9
-16 343 1 190 3 367 4 394 1 48 -10 65 -29 48z"/>
<path d="M550 260 c0 -99 16 -141 22 -57 l3 42 53 1 c46 1 55 -2 62 -20 6 -14
8 1 8 49 -1 56 -2 62 -7 30 l-6 -40 -59 -3 -59 -3 6 50 c5 41 3 51 -8 51 -12
0 -15 -19 -15 -100z"/>
<path d="M272 308 c4 -69 -9 -113 -37 -128 -13 -7 -22 -17 -19 -21 7 -13 39
11 58 42 18 31 23 149 6 149 -6 0 -10 -18 -8 -42z"/>
<path d="M385 335 c-19 -16 -19 -16 10 -10 17 4 35 8 41 10 7 2 22 -6 34 -17
18 -17 21 -29 18 -69 -2 -42 -1 -47 10 -32 19 26 15 87 -7 107 -27 24 -82 30
-106 11z"/>
<path d="M770 281 c0 -32 -3 -73 -6 -90 -4 -20 -3 -31 5 -31 7 0 11 25 11 70
0 39 3 70 8 70 4 -1 32 -32 62 -70 30 -39 58 -70 63 -70 4 0 7 17 7 38 0 26
-3 33 -10 22 -11 -18 -32 0 -87 72 -21 26 -41 48 -45 48 -4 0 -8 -26 -8 -59z"/>
<path d="M911 293 c1 -43 2 -45 9 -18 11 44 11 65 0 65 -5 0 -9 -21 -9 -47z"/>
<path d="M1050 250 c0 -53 4 -90 10 -90 6 0 10 16 10 35 l0 34 34 -20 c19 -11
40 -27 46 -35 14 -15 30 -19 30 -6 0 10 -87 72 -100 72 -6 0 -10 20 -10 45 0
38 3 45 20 45 23 0 42 -32 33 -56 -4 -12 -3 -15 5 -10 16 9 15 49 0 64 -7 7
-27 12 -45 12 l-33 0 0 -90z"/>
<path d="M1219 333 c-8 -75 -8 -173 1 -173 6 0 10 28 10 68 0 37 3 77 6 90 4
13 2 22 -5 22 -6 0 -11 -3 -12 -7z"/>
<path d="M1296 279 c-9 -87 -8 -119 4 -119 6 0 10 16 10 35 0 19 5 35 11 35 6
0 32 -18 58 -40 52 -44 69 -44 88 -4 12 25 11 26 -6 10 -25 -23 -41 -20 -80
16 -28 25 -32 33 -23 47 7 9 15 23 19 31 3 8 12 19 20 23 7 4 13 13 13 18 0
17 -20 -1 -46 -42 -34 -55 -57 -52 -52 6 5 68 -8 54 -16 -16z"/>
<path d="M1540 324 c0 -8 7 -22 15 -30 8 -9 15 -24 15 -35 0 -16 -7 -19 -45
-19 -25 0 -45 -4 -45 -9 0 -5 24 -8 53 -7 51 1 52 0 62 -31 5 -18 13 -33 18
-33 10 0 9 6 -29 108 -25 68 -44 92 -44 56z"/>
<path d="M340 295 c-7 -9 -10 -18 -7 -21 3 -3 10 4 17 15 13 25 8 27 -10 6z"/>
<path d="M328 255 c-3 -6 -1 -24 3 -41 10 -35 44 -55 92 -53 l32 2 -29 4 c-44
7 -75 32 -84 66 -4 17 -11 27 -14 22z"/>
<path d="M692 180 c0 -14 2 -19 5 -12 2 6 2 18 0 25 -3 6 -5 1 -5 -13z"/>
<path d="M642 33 c164 -2 432 -2 595 0 164 1 30 2 -297 2 -327 0 -461 -1 -298
-2z"/>
</g>
</svg>
